#define centurion_width 16
#define centurion_height 16
static unsigned short centurion_bits[] = {
   0x0000, 0x0000, 0x0000, 0x03c0, 0x0210, 0x0400, 0x00f0, 0x0900, 0x0200,
   0x0060, 0x0200, 0x0440, 0x0000, 0x0440, 0x0000, 0x0000 };
